<svg width="285" height="180" viewBox="0 0 285 180" fill="none" xmlns="http://www.w3.org/2000/svg">
<path opacity="0.07" d="M262.5 0H22.5C9.75 0 0 9.75 0 22.5V157.5C0 170.25 10.5 180 22.5 180H262.5C275.25 180 285 170.25 285 157.5V22.5C285 9.75 274.5 0 262.5 0Z" fill="black"/>
<path d="M262.5 7.5C270.75 7.5 277.5 14.25 277.5 22.5V157.5C277.5 165.75 270.75 172.5 262.5 172.5H22.5C14.25 172.5 7.5 165.75 7.5 157.5V22.5C7.5 14.25 14.25 7.5 22.5 7.5H262.5Z" fill="white"/>
<path d="M125.263 120.461V80.1854C125.263 72.7751 131.27 66.7679 138.681 66.7679L150.572 66.7854C157.961 66.8002 163.944 72.7944 163.944 80.1836V88.7565C163.944 96.1669 157.936 102.175 150.526 102.175H133.722" stroke="#939598" stroke-width="6.26444" stroke-miterlimit="10" stroke-linecap="round" stroke-linejoin="round"/>
<path d="M167.267 66.7621H172.426C175.467 66.7621 177.932 69.2275 177.932 72.2688V102.355" stroke="#939598" stroke-width="6.26444" stroke-miterlimit="10" stroke-linecap="round" stroke-linejoin="round"/>
<path d="M176.826 62.101L174.487 59.7615C173.906 59.1813 173.906 58.2401 174.487 57.6596L176.825 55.3219C177.406 54.7405 178.348 54.7405 178.929 55.3219L181.267 57.6596C181.848 58.2401 181.848 59.1813 181.267 59.7615L178.928 62.101C178.348 62.6815 177.406 62.6815 176.826 62.101Z" fill="#32BCAD"/>
<path d="M187.828 66.7354H192.944C195.575 66.7354 198.099 67.7807 199.96 69.6416L211.925 81.6066C213.475 83.157 215.988 83.157 217.538 81.6066L229.46 69.6853C231.32 67.8247 233.844 66.7794 236.476 66.7794H240.635" stroke="#939598" stroke-width="6.26444" stroke-miterlimit="10" stroke-linecap="round" stroke-linejoin="round"/>
<path d="M187.828 102.091H192.944C195.575 102.091 198.099 101.046 199.96 99.1852L211.925 87.2198C213.475 85.6698 215.988 85.6698 217.538 87.2198L229.46 99.1412C231.32 101.002 233.844 102.047 236.476 102.047H240.635" stroke="#939598" stroke-width="6.26444" stroke-miterlimit="10" stroke-linecap="round" stroke-linejoin="round"/>
<path d="M94.7645 109.735C92.1969 109.735 89.7823 108.736 87.9669 106.921L78.1515 97.1058C77.4626 96.4148 76.2613 96.417 75.5725 97.1058L65.7213 106.957C63.9056 108.771 61.491 109.771 58.9234 109.771H56.9893L69.4203 122.203C73.3028 126.085 79.5975 126.085 83.4799 122.203L95.947 109.735H94.7645Z" fill="#32BCAD"/>
<path d="M58.9234 75.0168C61.491 75.0168 63.9056 76.0168 65.7209 77.8316L75.5721 87.6843C76.2816 88.3937 77.4401 88.3968 78.1514 87.6834L87.9666 77.8673C89.7822 76.0525 92.1968 75.0528 94.7644 75.0528H95.9467L83.4799 62.586C79.5974 58.7036 73.3028 58.7036 69.4203 62.586L56.9895 75.0168H58.9234Z" fill="#32BCAD"/>
<path d="M106.258 85.3645L98.7245 77.8307C98.5586 77.8972 98.3791 77.9387 98.1895 77.9387H94.7644C92.9934 77.9387 91.2599 78.6568 90.0087 79.9089L80.1933 89.7244C79.2751 90.6428 78.0683 91.1027 76.8623 91.1027C75.6555 91.1027 74.4496 90.6428 73.5311 89.7253L63.679 79.8732C62.4275 78.6211 60.6944 77.903 58.9233 77.903H54.7115C54.5321 77.903 54.364 77.8606 54.2055 77.8009L46.6418 85.3645C42.7594 89.2467 42.7594 95.5413 46.6418 99.4241L54.2052 106.987C54.3637 106.928 54.5321 106.885 54.7115 106.885H58.9233C60.6944 106.885 62.4275 106.167 63.679 104.915L73.5302 95.064C75.3108 93.2849 78.4145 93.284 80.1933 95.0649L90.0087 104.879C91.2599 106.132 92.9934 106.85 94.7644 106.85H98.1895C98.3794 106.85 98.5586 106.891 98.7248 106.957L106.258 99.4241C110.141 95.5413 110.141 89.2467 106.258 85.3645Z" fill="#32BCAD"/>
<path d="M135.489 117.038C134.933 117.038 134.286 117.171 133.646 117.319V119.773C134.089 119.935 134.595 120.013 135.081 120.013C136.312 120.013 136.896 119.598 136.896 118.514C136.896 117.494 136.417 117.038 135.489 117.038ZM133.231 121.595V116.742H133.568L133.604 116.953C134.173 116.819 134.961 116.644 135.524 116.644C135.981 116.644 136.417 116.713 136.783 117.009C137.205 117.354 137.339 117.909 137.339 118.514C137.339 119.147 137.128 119.746 136.551 120.076C136.15 120.301 135.608 120.392 135.123 120.392C134.623 120.392 134.145 120.314 133.646 120.167V121.595H133.231Z" fill="#939598"/>
<path d="M140.429 117.023C139.198 117.023 138.649 117.41 138.649 118.493C138.649 119.541 139.191 120.013 140.429 120.013C141.653 120.013 142.201 119.633 142.201 118.549C142.201 117.501 141.66 117.023 140.429 117.023ZM142.011 120.013C141.603 120.308 141.055 120.392 140.429 120.392C139.789 120.392 139.24 120.3 138.839 120.013C138.389 119.696 138.206 119.175 138.206 118.521C138.206 117.874 138.389 117.347 138.839 117.023C139.24 116.735 139.789 116.644 140.429 116.644C141.062 116.644 141.603 116.735 142.011 117.023C142.469 117.347 142.644 117.874 142.644 118.514C142.644 119.168 142.462 119.696 142.011 120.013Z" fill="#939598"/>
<path d="M147.838 120.294L146.466 117.347H146.438L145.087 120.294H144.715L143.252 116.742H143.709L144.926 119.724H144.954L146.276 116.742H146.656L148.013 119.724H148.042L149.231 116.742H149.674L148.21 120.294H147.838Z" fill="#939598"/>
<path d="M152.327 117.016C151.187 117.016 150.801 117.522 150.73 118.254H153.923C153.889 117.446 153.473 117.016 152.327 117.016ZM152.313 120.392C151.63 120.392 151.187 120.294 150.836 119.998C150.42 119.639 150.28 119.119 150.28 118.522C150.28 117.952 150.47 117.347 150.941 117.002C151.335 116.728 151.821 116.643 152.327 116.643C152.784 116.643 153.312 116.692 153.748 116.988C154.261 117.332 154.36 117.938 154.36 118.627H150.716C150.73 119.358 150.969 120.006 152.348 120.006C153.002 120.006 153.614 119.9 154.184 119.801V120.174C153.593 120.28 152.939 120.392 152.313 120.392Z" fill="#939598"/>
<path d="M155.551 120.294V116.742H155.889L155.924 116.953C156.676 116.763 157.028 116.644 157.689 116.644H157.739V117.038H157.64C157.084 117.038 156.747 117.114 155.966 117.319V120.294H155.551Z" fill="#939598"/>
<path d="M160.149 117.016C159.009 117.016 158.623 117.522 158.552 118.254H161.745C161.711 117.446 161.295 117.016 160.149 117.016ZM160.135 120.392C159.452 120.392 159.009 120.294 158.658 119.998C158.242 119.639 158.102 119.119 158.102 118.522C158.102 117.952 158.292 117.347 158.763 117.002C159.157 116.728 159.643 116.643 160.149 116.643C160.606 116.643 161.134 116.692 161.57 116.988C162.083 117.332 162.182 117.938 162.182 118.627H158.538C158.552 119.358 158.792 120.006 160.17 120.006C160.824 120.006 161.436 119.9 162.006 119.801V120.174C161.415 120.28 160.761 120.392 160.135 120.392Z" fill="#939598"/>
<path d="M166.728 117.263C166.285 117.1 165.779 117.023 165.293 117.023C164.062 117.023 163.478 117.438 163.478 118.521C163.478 119.548 163.957 119.998 164.885 119.998C165.441 119.998 166.088 119.864 166.728 119.724V117.263ZM166.806 120.294L166.77 120.083C166.201 120.216 165.413 120.392 164.85 120.392C164.393 120.392 163.957 120.329 163.591 120.026C163.169 119.681 163.035 119.126 163.035 118.521C163.035 117.889 163.246 117.29 163.823 116.966C164.224 116.735 164.766 116.643 165.258 116.643C165.75 116.643 166.228 116.728 166.728 116.868V115.243H167.143V120.294H166.806Z" fill="#939598"/>
<path d="M173.228 117.038C172.672 117.038 172.025 117.171 171.385 117.319V119.766C171.835 119.935 172.335 120.013 172.82 120.013C174.051 120.013 174.635 119.598 174.635 118.514C174.635 117.494 174.157 117.038 173.228 117.038ZM174.29 120.076C173.889 120.301 173.348 120.392 172.862 120.392C172.335 120.392 171.807 120.301 171.273 120.125L171.252 120.294H170.97V115.244H171.385V116.938C171.955 116.813 172.722 116.644 173.263 116.644C173.721 116.644 174.157 116.713 174.522 117.009C174.944 117.354 175.078 117.909 175.078 118.514C175.078 119.148 174.867 119.746 174.29 120.076Z" fill="#939598"/>
<path d="M175.629 121.658V121.272C175.833 121.293 176.023 121.307 176.157 121.307C176.67 121.307 176.98 121.159 177.268 120.575L177.402 120.294L175.545 116.742H176.023L177.613 119.808H177.641L179.153 116.742H179.624L177.627 120.73C177.261 121.455 176.867 121.694 176.142 121.694C175.981 121.694 175.805 121.68 175.629 121.658Z" fill="#939598"/>
<path d="M185.344 118.268H183.966V119.513H185.351C186.3 119.513 186.659 119.407 186.659 118.887C186.659 118.331 186.167 118.268 185.344 118.268ZM185.091 116.249H183.966V117.515H185.098C186.034 117.515 186.406 117.403 186.406 116.875C186.406 116.313 185.935 116.249 185.091 116.249ZM187.229 119.957C186.723 120.28 186.111 120.294 184.992 120.294H182.889V115.476H184.943C185.907 115.476 186.497 115.49 186.99 115.785C187.342 115.997 187.482 116.32 187.482 116.742C187.482 117.248 187.271 117.586 186.723 117.811V117.838C187.342 117.98 187.743 118.297 187.743 118.979C187.743 119.443 187.574 119.746 187.229 119.957Z" fill="#939598"/>
<path d="M191.95 118.803C191.535 118.767 191.114 118.746 190.67 118.746C189.946 118.746 189.692 118.894 189.692 119.224C189.692 119.534 189.904 119.703 190.459 119.703C190.923 119.703 191.479 119.598 191.95 119.492V118.803ZM192.161 120.294L192.133 120.083C191.528 120.231 190.825 120.392 190.206 120.392C189.826 120.392 189.418 120.343 189.13 120.132C188.863 119.942 188.736 119.632 188.736 119.273C188.736 118.873 188.912 118.5 189.334 118.31C189.707 118.134 190.206 118.12 190.663 118.12C191.036 118.12 191.535 118.141 191.95 118.17V118.106C191.95 117.551 191.584 117.368 190.586 117.368C190.199 117.368 189.728 117.388 189.278 117.431V116.713C189.777 116.672 190.339 116.643 190.804 116.643C191.423 116.643 192.063 116.693 192.457 116.974C192.865 117.263 192.942 117.664 192.942 118.191V120.294H192.161Z" fill="#939598"/>
<path d="M197.58 120.294V118.331C197.58 117.684 197.25 117.452 196.658 117.452C196.222 117.452 195.674 117.565 195.209 117.677V120.294H194.218V116.742H195.027L195.061 116.966C195.688 116.805 196.384 116.644 196.961 116.644C197.397 116.644 197.84 116.706 198.178 117.009C198.459 117.263 198.565 117.613 198.565 118.12V120.294H197.58Z" fill="#939598"/>
<path d="M201.367 120.392C200.91 120.392 200.41 120.329 200.044 120.019C199.608 119.668 199.481 119.112 199.481 118.514C199.481 117.951 199.664 117.339 200.206 116.995C200.649 116.706 201.198 116.643 201.768 116.643C202.176 116.643 202.577 116.672 203.02 116.713V117.473C202.661 117.438 202.232 117.41 201.887 117.41C200.944 117.41 200.501 117.706 200.501 118.521C200.501 119.288 200.832 119.618 201.606 119.618C202.056 119.618 202.583 119.534 203.097 119.436V120.167C202.541 120.28 201.936 120.392 201.367 120.392Z" fill="#939598"/>
<path d="M206.027 117.388C205.084 117.388 204.669 117.684 204.669 118.493C204.669 119.302 205.077 119.647 206.027 119.647C206.962 119.647 207.37 119.358 207.37 118.549C207.37 117.74 206.969 117.388 206.027 117.388ZM207.729 120.02C207.293 120.315 206.723 120.392 206.027 120.392C205.316 120.392 204.747 120.307 204.317 120.02C203.825 119.696 203.649 119.162 203.649 118.522C203.649 117.881 203.825 117.339 204.317 117.016C204.747 116.728 205.316 116.643 206.027 116.643C206.73 116.643 207.293 116.728 207.729 117.016C208.221 117.339 208.39 117.881 208.39 118.514C208.39 119.154 208.214 119.696 207.729 120.02Z" fill="#939598"/>
<path d="M214.116 120.392C213.519 120.392 212.871 120.294 212.386 119.893C211.809 119.414 211.633 118.676 211.633 117.881C211.633 117.171 211.858 116.327 212.611 115.834C213.194 115.455 213.919 115.377 214.651 115.377C215.186 115.377 215.734 115.412 216.332 115.462V116.327C215.818 116.284 215.186 116.249 214.693 116.249C213.321 116.249 212.737 116.77 212.737 117.881C212.737 119.014 213.279 119.52 214.292 119.52C214.953 119.52 215.692 119.386 216.437 119.232V120.09C215.692 120.238 214.911 120.392 214.116 120.392Z" fill="#939598"/>
<path d="M219.351 117.276C218.528 117.276 218.212 117.572 218.148 118.114H220.54C220.512 117.537 220.174 117.276 219.351 117.276ZM219.204 120.392C218.62 120.392 218.092 120.322 217.698 119.998C217.276 119.647 217.128 119.119 217.128 118.514C217.128 117.972 217.304 117.368 217.797 117.016C218.233 116.706 218.789 116.643 219.351 116.643C219.858 116.643 220.456 116.699 220.891 117.002C221.462 117.403 221.511 118.022 221.518 118.754H218.141C218.163 119.295 218.451 119.647 219.449 119.647C220.069 119.647 220.758 119.556 221.342 119.464V120.16C220.659 120.273 219.914 120.392 219.204 120.392Z" fill="#939598"/>
<path d="M225.93 120.294V118.331C225.93 117.684 225.6 117.452 225.009 117.452C224.573 117.452 224.024 117.565 223.56 117.677V120.294H222.568V116.742H223.377L223.412 116.966C224.038 116.805 224.734 116.644 225.311 116.644C225.747 116.644 226.191 116.706 226.528 117.009C226.809 117.263 226.915 117.613 226.915 118.12V120.294H225.93Z" fill="#939598"/>
<path d="M229.738 120.392C229.26 120.392 228.823 120.258 228.585 119.886C228.409 119.632 228.324 119.288 228.324 118.81V117.48H227.607V116.742H228.324L228.43 115.665H229.309V116.742H230.709V117.48H229.309V118.62C229.309 118.894 229.33 119.126 229.407 119.295C229.513 119.534 229.745 119.626 230.055 119.626C230.287 119.626 230.568 119.59 230.765 119.556V120.265C230.441 120.329 230.068 120.392 229.738 120.392Z" fill="#939598"/>
<path d="M231.676 120.294V116.742H232.485L232.521 116.966C233.175 116.784 233.66 116.644 234.279 116.644C234.307 116.644 234.349 116.644 234.405 116.65V117.494C234.293 117.488 234.159 117.488 234.061 117.488C233.575 117.488 233.21 117.544 232.668 117.671V120.294H231.676Z" fill="#939598"/>
<path d="M238.011 118.803C237.596 118.767 237.174 118.746 236.731 118.746C236.007 118.746 235.753 118.894 235.753 119.224C235.753 119.534 235.964 119.703 236.52 119.703C236.984 119.703 237.54 119.598 238.011 119.492V118.803ZM238.222 120.294L238.194 120.083C237.589 120.231 236.886 120.392 236.267 120.392C235.887 120.392 235.479 120.343 235.19 120.132C234.923 119.942 234.797 119.632 234.797 119.273C234.797 118.873 234.972 118.5 235.394 118.31C235.767 118.134 236.267 118.12 236.724 118.12C237.096 118.12 237.596 118.141 238.011 118.17V118.106C238.011 117.551 237.645 117.368 236.646 117.368C236.26 117.368 235.788 117.388 235.338 117.431V116.713C235.838 116.672 236.4 116.643 236.865 116.643C237.483 116.643 238.124 116.693 238.518 116.974C238.925 117.263 239.003 117.664 239.003 118.191V120.294H238.222Z" fill="#939598"/>
<path d="M240.278 115.244H241.27V120.294H240.278V115.244Z" fill="#939598"/>
</svg>
